<svg width="83" height="82" viewBox="0 0 83 82" fill="none" xmlns="http://www.w3.org/2000/svg">
<line x1="0.544207" y1="80.7944" x2="23.5442" y2="29.7944" stroke="white"/>
<line x1="1" y1="80.5" x2="7" y2="80.5" stroke="white"/>
<path d="M10.5 80.9244L33.706 29.8353" stroke="white"/>
<line x1="45.5001" y1="81.1113" x2="46.5001" y2="29.9902" stroke="white"/>
<path d="M23.5417 80.9213L46 30" stroke="white"/>
<path d="M47 30H33" stroke="white"/>
<line x1="29.5177" y1="67.577" x2="46.3767" y2="48.3981" stroke="white"/>
<line x1="7" y1="80.5" x2="62" y2="80.5" stroke="white"/>
<line x1="52.4964" y1="30.0596" x2="46.4964" y2="80.0596" stroke="white"/>
<line x1="52.4883" y1="29.8926" x2="63.4883" y2="79.8926" stroke="white"/>
<line x1="82" y1="80.5" x2="60" y2="80.5" stroke="white"/>
<line x1="63.5004" y1="81.0196" x2="61.5004" y2="30.0196" stroke="white"/>
<line x1="61.461" y1="30.8064" x2="82.461" y2="80.8064" stroke="white"/>
<path d="M28.0383 23.284L35.2117 18.6931" stroke="white"/>
<line y1="-0.5" x2="12.7306" y2="-0.5" transform="matrix(0.904396 0.426695 -0.468214 0.883615 34.6174 19.0159)" stroke="white"/>
<line y1="-0.5" x2="9.09327" y2="-0.5" transform="matrix(0.904396 0.426695 -0.468214 0.883615 49.4205 22.12)" stroke="white"/>
<path d="M42.4301 1.16766L58 25.8052" stroke="white"/>
<path d="M41.6077 1.16772L28.3977 23.0845" stroke="white"/>
<line y1="-0.5" x2="4.74584" y2="-0.5" transform="matrix(0.871417 -0.490542 0.534384 0.845242 46.1309 24.448)" stroke="white"/>
<line x1="41.1965" y1="1.44373" x2="42.8413" y2="1.44373" stroke="white"/>
</svg>
